<svg width="1280" height="720" viewBox="0 0 1280 720" fill="none" xmlns="http://www.w3.org/2000/svg">
  <defs>
    <linearGradient id="bg" x1="54" y1="54" x2="1226" y2="666" gradientUnits="userSpaceOnUse">
      <stop stop-color="#111112"/>
      <stop offset="1" stop-color="#080809"/>
    </linearGradient>
    <linearGradient id="accent" x1="943" y1="320" x2="1127" y2="504" gradientUnits="userSpaceOnUse">
      <stop stop-color="#FF7B87"/>
      <stop offset="1" stop-color="#E63946"/>
    </linearGradient>
  </defs>

  <rect width="1280" height="720" fill="#0A0A0A"/>
  <rect x="54" y="54" width="1172" height="612" rx="42" fill="url(#bg)" stroke="#1D1D21" stroke-width="2"/>
  <path d="M54 150H1226" stroke="#212126" stroke-width="2"/>
  <circle cx="94" cy="102" r="8" fill="#E63946"/>
  <circle cx="124" cy="102" r="8" fill="#4D2429"/>
  <circle cx="154" cy="102" r="8" fill="#28282B"/>

  <text x="146" y="316" fill="#F2F2F2" font-size="106" font-family="'JetBrains Mono', 'SFMono-Regular', Consolas, monospace" letter-spacing="8">ECHO_0x</text>
  <text x="146" y="382" fill="#A8A8AD" font-size="30" font-family="'JetBrains Mono', 'SFMono-Regular', Consolas, monospace">Minimal dark terminal theme for Halo.</text>
  <text x="146" y="492" fill="#6F6F74" font-size="26" font-family="'JetBrains Mono', 'SFMono-Regular', Consolas, monospace">&gt; elegant interface_</text>
  <text x="146" y="536" fill="#6F6F74" font-size="26" font-family="'JetBrains Mono', 'SFMono-Regular', Consolas, monospace">&gt; formula-driven mood_</text>

  <circle cx="1035" cy="412" r="126" stroke="#26262B" stroke-width="2"/>
  <circle cx="1035" cy="412" r="92" fill="url(#accent)"/>
  <path d="M943 412H1127" stroke="#2D2D31" stroke-width="2"/>
  <path d="M1035 320V504" stroke="#2D2D31" stroke-width="2"/>
  <path d="M939 482L991 430L1035 462L1143 346" stroke="#F3B8BF" stroke-width="12" stroke-linecap="round" stroke-linejoin="round"/>
  <circle cx="991" cy="430" r="6" fill="#F3B8BF"/>
  <circle cx="1035" cy="462" r="6" fill="#F3B8BF"/>

  <rect x="146" y="582" width="172" height="4" rx="2" fill="#E63946"/>
  <rect x="334" y="582" width="88" height="4" rx="2" fill="#2B2B2F"/>
</svg>
