<svg width="1280" height="640" viewBox="0 0 1280 640" fill="none" xmlns="http://www.w3.org/2000/svg">
  <defs>
    <linearGradient id="bg" x1="84" y1="56" x2="1194" y2="580" gradientUnits="userSpaceOnUse">
      <stop stop-color="#111112"/>
      <stop offset="1" stop-color="#080809"/>
    </linearGradient>
    <linearGradient id="accent" x1="786" y1="200" x2="1042" y2="426" gradientUnits="userSpaceOnUse">
      <stop stop-color="#FF7B87"/>
      <stop offset="1" stop-color="#E63946"/>
    </linearGradient>
  </defs>

  <rect width="1280" height="640" fill="#0A0A0A"/>
  <rect x="76" y="76" width="1128" height="488" rx="36" fill="url(#bg)" stroke="#1D1D20" stroke-width="2"/>
  <path d="M76 144H1204" stroke="#202024" stroke-width="2"/>
  <circle cx="116" cy="110" r="8" fill="#E63946"/>
  <circle cx="146" cy="110" r="8" fill="#4D2429"/>
  <circle cx="176" cy="110" r="8" fill="#28282B"/>

  <text x="142" y="285" fill="#F2F2F2" font-size="106" font-family="'JetBrains Mono', 'SFMono-Regular', Consolas, monospace" letter-spacing="8">ECHO_0x</text>
  <text x="146" y="346" fill="#A8A8AD" font-size="30" font-family="'JetBrains Mono', 'SFMono-Regular', Consolas, monospace">Minimal dark terminal theme for Halo.</text>
  <text x="146" y="446" fill="#6F6F74" font-size="26" font-family="'JetBrains Mono', 'SFMono-Regular', Consolas, monospace">&gt; elegant interface_</text>
  <text x="146" y="490" fill="#6F6F74" font-size="26" font-family="'JetBrains Mono', 'SFMono-Regular', Consolas, monospace">&gt; formula-driven mood_</text>

  <rect x="750" y="188" width="286" height="286" rx="8" stroke="#FF4D5A" stroke-width="10"/>
  <circle cx="893" cy="331" r="104" stroke="#242428" stroke-width="2"/>
  <circle cx="893" cy="331" r="76" fill="url(#accent)"/>
  <path d="M813 331H973" stroke="#2D2D31" stroke-width="2"/>
  <path d="M893 251V411" stroke="#2D2D31" stroke-width="2"/>
  <path d="M810 418L858 372L894 402L979 316" stroke="#F3B8BF" stroke-width="12" stroke-linecap="round" stroke-linejoin="round"/>

  <rect x="142" y="520" width="172" height="4" rx="2" fill="#E63946"/>
  <rect x="330" y="520" width="88" height="4" rx="2" fill="#2B2B2F"/>
</svg>
