<svg width="1280" height="640" viewBox="0 0 1280 640" fill="none" xmlns="http://www.w3.org/2000/svg">
  <defs>
    <linearGradient id="bg" x1="128" y1="64" x2="1136" y2="608" gradientUnits="userSpaceOnUse">
      <stop stop-color="#0D0D0F"/>
      <stop offset="1" stop-color="#050506"/>
    </linearGradient>
    <linearGradient id="panel" x1="154" y1="118" x2="1120" y2="566" gradientUnits="userSpaceOnUse">
      <stop stop-color="#131316"/>
      <stop offset="1" stop-color="#0C0C0D"/>
    </linearGradient>
    <linearGradient id="accent" x1="232" y1="126" x2="967" y2="495" gradientUnits="userSpaceOnUse">
      <stop stop-color="#FF7C88"/>
      <stop offset="1" stop-color="#E63946"/>
    </linearGradient>
    <filter id="glow" x="144" y="72" width="1012" height="496" filterUnits="userSpaceOnUse" color-interpolation-filters="sRGB">
      <feGaussianBlur stdDeviation="28" result="blur"/>
      <feMerge>
        <feMergeNode in="blur"/>
        <feMergeNode in="SourceGraphic"/>
      </feMerge>
    </filter>
    <clipPath id="frame">
      <rect x="112" y="88" width="1056" height="464" rx="32"/>
    </clipPath>
  </defs>

  <rect width="1280" height="640" fill="#090909"/>
  <rect x="48" y="40" width="1184" height="560" rx="44" fill="url(#bg)" stroke="#1B1B1D" stroke-width="2"/>
  <g clip-path="url(#frame)">
    <rect x="112" y="88" width="1056" height="464" rx="32" fill="url(#panel)"/>
    <path d="M112 142H1168" stroke="#1E1E1F" stroke-width="2"/>
    <path d="M176 88V552M272 88V552M368 88V552M464 88V552M560 88V552M656 88V552M752 88V552M848 88V552M944 88V552M1040 88V552" stroke="#151517" stroke-width="1"/>
    <path d="M112 190H1168M112 238H1168M112 286H1168M112 334H1168M112 382H1168M112 430H1168M112 478H1168" stroke="#151517" stroke-width="1"/>

    <rect x="140" y="112" width="1000" height="42" rx="18" fill="#101012"/>
    <circle cx="174" cy="133" r="7" fill="#E63946"/>
    <circle cx="200" cy="133" r="7" fill="#8E2833"/>
    <circle cx="226" cy="133" r="7" fill="#502126"/>
    <text x="1018" y="139" fill="#6B6B6B" font-size="16" font-family="'JetBrains Mono', 'SFMono-Regular', Consolas, monospace">registry://theme-echo-0x</text>

    <text x="178" y="218" fill="#EDEDED" font-size="72" font-family="'JetBrains Mono', 'SFMono-Regular', Consolas, monospace" letter-spacing="10">ECHO_0x</text>
    <text x="182" y="262" fill="#B8B8B8" font-size="22" font-family="'JetBrains Mono', 'SFMono-Regular', Consolas, monospace">Dark terminal aesthetics for Halo technical publishing.</text>
    <text x="182" y="302" fill="#6B6B6B" font-size="20" font-family="'JetBrains Mono', 'SFMono-Regular', Consolas, monospace">AI / CRYPTO / FORMULA / PJAX / HALO 2.25+</text>

    <path d="M714 434C763 347 808 275 849 216L896 148L943 216C984 275 1029 347 1078 434" stroke="url(#accent)" stroke-width="22" stroke-linecap="round" stroke-linejoin="round" filter="url(#glow)"/>
    <path d="M771 394H1021" stroke="#F6C4CA" stroke-width="14" stroke-linecap="round"/>
    <path d="M781 292H858" stroke="#F6C4CA" stroke-width="12" stroke-linecap="round"/>
    <path d="M933 292H1009" stroke="#F6C4CA" stroke-width="12" stroke-linecap="round"/>

    <path d="M182 412H596" stroke="#242426" stroke-width="2"/>
    <path d="M182 446H596" stroke="#242426" stroke-width="2"/>
    <path d="M182 480H596" stroke="#242426" stroke-width="2"/>
    <text x="182" y="396" fill="#8B8B8B" font-size="20" font-family="'JetBrains Mono', 'SFMono-Regular', Consolas, monospace">f(x,t)   = sin(x + wt) * exp(-x / 8)</text>
    <text x="182" y="430" fill="#8B8B8B" font-size="20" font-family="'JetBrains Mono', 'SFMono-Regular', Consolas, monospace">hash_n   = xor(block_n, key_schedule)</text>
    <text x="182" y="464" fill="#8B8B8B" font-size="20" font-family="'JetBrains Mono', 'SFMono-Regular', Consolas, monospace">signal_t = ReLU(Wx + b) -> softmax(logits)</text>
    <text x="182" y="514" fill="#E63946" font-size="18" font-family="'JetBrains Mono', 'SFMono-Regular', Consolas, monospace">STATUS  :: STABLE_BASELINE_1.0.0</text>

    <rect x="140" y="318" width="1000" height="10" fill="#E63946" opacity="0.08"/>
    <rect x="140" y="330" width="1000" height="4" fill="#E63946" opacity="0.2"/>
    <rect x="140" y="338" width="1000" height="2" fill="#E63946" opacity="0.12"/>
  </g>
</svg>
